<svg width="1321" height="930" viewBox="0 0 1321 930" fill="none" xmlns="http://www.w3.org/2000/svg">
<rect y="1.00049" width="1321" height="924.927" rx="36" fill="white" fill-opacity="0.0"/>
<line x1="203" y1="929.013" x2="203" y2="0.986755" stroke="black"/>
<line x1="1139.5" y1="929.027" x2="1139.5" y2="1.00043" stroke="black"/>
<line x1="203.989" y1="156.489" x2="1140.99" y2="156.489" stroke="black"/>
<line x1="202" y1="758.5" x2="1139" y2="758.5" stroke="black"/>
<path d="M644.761 456V441.455H649.847C650.86 441.455 651.696 441.63 652.354 441.981C653.012 442.326 653.502 442.793 653.824 443.38C654.146 443.962 654.307 444.608 654.307 445.319C654.307 445.944 654.196 446.46 653.973 446.867C653.755 447.274 653.466 447.596 653.107 447.833C652.751 448.07 652.366 448.245 651.949 448.358V448.5C652.394 448.529 652.841 448.685 653.291 448.969C653.741 449.253 654.117 449.661 654.42 450.191C654.723 450.721 654.875 451.37 654.875 452.137C654.875 452.866 654.709 453.522 654.378 454.104C654.046 454.687 653.523 455.148 652.808 455.489C652.093 455.83 651.163 456 650.017 456H644.761ZM646.523 454.438H650.017C651.168 454.438 651.984 454.215 652.467 453.77C652.955 453.321 653.199 452.776 653.199 452.137C653.199 451.644 653.073 451.19 652.822 450.773C652.571 450.352 652.214 450.016 651.75 449.765C651.286 449.509 650.737 449.381 650.102 449.381H646.523V454.438ZM646.523 447.847H649.79C650.32 447.847 650.798 447.743 651.224 447.535C651.655 447.326 651.996 447.033 652.247 446.654C652.503 446.275 652.631 445.83 652.631 445.319C652.631 444.679 652.408 444.137 651.963 443.692C651.518 443.242 650.813 443.018 649.847 443.018H646.523V447.847ZM661.974 456.228C660.989 456.228 660.125 455.993 659.381 455.525C658.643 455.056 658.065 454.4 657.648 453.557C657.237 452.715 657.031 451.73 657.031 450.603C657.031 449.466 657.237 448.474 657.648 447.627C658.065 446.779 658.643 446.121 659.381 445.652C660.125 445.184 660.989 444.949 661.974 444.949C662.959 444.949 663.82 445.184 664.559 445.652C665.302 446.121 665.88 446.779 666.292 447.627C666.709 448.474 666.917 449.466 666.917 450.603C666.917 451.73 666.709 452.715 666.292 453.557C665.88 454.4 665.302 455.056 664.559 455.525C663.82 455.993 662.959 456.228 661.974 456.228ZM661.974 454.722C662.722 454.722 663.337 454.53 663.82 454.147C664.303 453.763 664.661 453.259 664.893 452.634C665.125 452.009 665.241 451.332 665.241 450.603C665.241 449.874 665.125 449.194 664.893 448.564C664.661 447.935 664.303 447.426 663.82 447.037C663.337 446.649 662.722 446.455 661.974 446.455C661.226 446.455 660.61 446.649 660.127 447.037C659.644 447.426 659.287 447.935 659.055 448.564C658.823 449.194 658.707 449.874 658.707 450.603C658.707 451.332 658.823 452.009 659.055 452.634C659.287 453.259 659.644 453.763 660.127 454.147C660.61 454.53 661.226 454.722 661.974 454.722ZM673.595 456.228C672.686 456.228 671.883 455.998 671.187 455.539C670.491 455.075 669.947 454.421 669.554 453.579C669.161 452.731 668.964 451.73 668.964 450.574C668.964 449.429 669.161 448.434 669.554 447.591C669.947 446.749 670.493 446.098 671.194 445.638C671.895 445.179 672.705 444.949 673.623 444.949C674.333 444.949 674.895 445.068 675.306 445.304C675.723 445.536 676.04 445.802 676.258 446.1C676.481 446.393 676.654 446.635 676.777 446.824H676.919V441.455H678.595V456H676.975V454.324H676.777C676.654 454.523 676.478 454.774 676.251 455.077C676.024 455.375 675.699 455.643 675.278 455.88C674.857 456.112 674.296 456.228 673.595 456.228ZM673.822 454.722C674.494 454.722 675.063 454.547 675.527 454.197C675.991 453.841 676.343 453.351 676.585 452.726C676.826 452.097 676.947 451.37 676.947 450.546C676.947 449.732 676.829 449.019 676.592 448.408C676.355 447.793 676.005 447.314 675.541 446.973C675.077 446.628 674.504 446.455 673.822 446.455C673.112 446.455 672.52 446.637 672.047 447.002C671.578 447.362 671.225 447.852 670.988 448.472C670.756 449.088 670.64 449.779 670.64 450.546C670.64 451.322 670.759 452.028 670.995 452.662C671.237 453.292 671.592 453.794 672.061 454.168C672.534 454.537 673.121 454.722 673.822 454.722ZM682.977 460.091C682.693 460.091 682.44 460.068 682.217 460.02C681.994 459.978 681.841 459.935 681.755 459.893L682.181 458.415C682.589 458.519 682.949 458.557 683.261 458.529C683.574 458.5 683.85 458.361 684.092 458.11C684.338 457.864 684.563 457.464 684.767 456.91L685.079 456.057L681.045 445.091H682.863L685.875 453.785H685.988L689 445.091H690.818L686.187 457.591C685.979 458.155 685.721 458.621 685.413 458.991C685.105 459.365 684.748 459.642 684.341 459.822C683.938 460.001 683.484 460.091 682.977 460.091Z" fill="#B4B4B4"/>
<path d="M643.761 88.0005V73.455H648.676C649.817 73.455 650.75 73.661 651.474 74.0729C652.204 74.4801 652.743 75.0317 653.094 75.7278C653.444 76.4238 653.619 77.2003 653.619 78.0573C653.619 78.9143 653.444 79.6932 653.094 80.394C652.748 81.0947 652.213 81.6534 651.489 82.0701C650.764 82.482 649.836 82.688 648.705 82.688H645.182V81.1255H648.648C649.429 81.1255 650.056 80.9905 650.53 80.7207C651.003 80.4508 651.347 80.0862 651.56 79.6269C651.777 79.1629 651.886 78.6397 651.886 78.0573C651.886 77.4749 651.777 76.9541 651.56 76.4948C651.347 76.0355 651.001 75.6757 650.523 75.4153C650.045 75.1501 649.41 75.0175 648.619 75.0175H645.523V88.0005H643.761ZM659.44 88.2562C658.748 88.2562 658.121 88.126 657.558 87.8655C656.994 87.6004 656.547 87.2192 656.215 86.7221C655.884 86.2202 655.718 85.6141 655.718 84.9039C655.718 84.2789 655.841 83.7723 656.087 83.384C656.334 82.991 656.663 82.6833 657.075 82.4607C657.487 82.2382 657.941 82.0725 658.438 81.9636C658.94 81.8499 659.444 81.76 659.951 81.6937C660.614 81.6084 661.151 81.5445 661.563 81.5019C661.98 81.4546 662.283 81.3764 662.472 81.2675C662.666 81.1586 662.763 80.9692 662.763 80.6994V80.6425C662.763 79.9418 662.572 79.3973 662.188 79.009C661.809 78.6208 661.234 78.4266 660.462 78.4266C659.662 78.4266 659.035 78.6018 658.58 78.9522C658.126 79.3026 657.806 79.6766 657.621 80.0744L656.031 79.5062C656.315 78.8433 656.693 78.3272 657.167 77.9579C657.645 77.5838 658.166 77.3234 658.729 77.1766C659.298 77.0251 659.856 76.9494 660.406 76.9494C660.756 76.9494 661.158 76.992 661.613 77.0772C662.072 77.1577 662.515 77.3258 662.941 77.5815C663.372 77.8371 663.729 78.223 664.013 78.7391C664.298 79.2552 664.44 79.9465 664.44 80.813V88.0005H662.763V86.5232H662.678C662.565 86.76 662.375 87.0133 662.11 87.2832C661.845 87.553 661.492 87.7827 661.052 87.9721C660.612 88.1615 660.074 88.2562 659.44 88.2562ZM659.695 86.7505C660.358 86.7505 660.917 86.6203 661.371 86.3599C661.831 86.0994 662.176 85.7633 662.408 85.3513C662.645 84.9394 662.763 84.5062 662.763 84.0516V82.5175C662.692 82.6028 662.536 82.6809 662.295 82.7519C662.058 82.8182 661.783 82.8774 661.471 82.9295C661.163 82.9768 660.862 83.0194 660.569 83.0573C660.28 83.0905 660.046 83.1189 659.866 83.1425C659.43 83.1994 659.023 83.2917 658.644 83.4195C658.27 83.5426 657.967 83.7297 657.735 83.9806C657.508 84.2268 657.394 84.563 657.394 84.9891C657.394 85.5715 657.61 86.0119 658.04 86.3101C658.476 86.6037 659.028 86.7505 659.695 86.7505ZM670.709 88.2562C670.018 88.2562 669.391 88.126 668.827 87.8655C668.264 87.6004 667.816 87.2192 667.485 86.7221C667.153 86.2202 666.988 85.6141 666.988 84.9039C666.988 84.2789 667.111 83.7723 667.357 83.384C667.603 82.991 667.932 82.6833 668.344 82.4607C668.756 82.2382 669.211 82.0725 669.708 81.9636C670.21 81.8499 670.714 81.76 671.221 81.6937C671.883 81.6084 672.421 81.5445 672.833 81.5019C673.249 81.4546 673.552 81.3764 673.742 81.2675C673.936 81.1586 674.033 80.9692 674.033 80.6994V80.6425C674.033 79.9418 673.841 79.3973 673.458 79.009C673.079 78.6208 672.504 78.4266 671.732 78.4266C670.932 78.4266 670.304 78.6018 669.85 78.9522C669.395 79.3026 669.076 79.6766 668.891 80.0744L667.3 79.5062C667.584 78.8433 667.963 78.3272 668.436 77.9579C668.915 77.5838 669.435 77.3234 669.999 77.1766C670.567 77.0251 671.126 76.9494 671.675 76.9494C672.025 76.9494 672.428 76.992 672.882 77.0772C673.342 77.1577 673.784 77.3258 674.211 77.5815C674.641 77.8371 674.999 78.223 675.283 78.7391C675.567 79.2552 675.709 79.9465 675.709 80.813V88.0005H674.033V86.5232H673.948C673.834 86.76 673.645 87.0133 673.38 87.2832C673.114 87.553 672.762 87.7827 672.321 87.9721C671.881 88.1615 671.344 88.2562 670.709 88.2562ZM670.965 86.7505C671.628 86.7505 672.186 86.6203 672.641 86.3599C673.1 86.0994 673.446 85.7633 673.678 85.3513C673.915 84.9394 674.033 84.5062 674.033 84.0516V82.5175C673.962 82.6028 673.806 82.6809 673.564 82.7519C673.328 82.8182 673.053 82.8774 672.74 82.9295C672.433 82.9768 672.132 83.0194 671.838 83.0573C671.55 83.0905 671.315 83.1189 671.135 83.1425C670.7 83.1994 670.292 83.2917 669.914 83.4195C669.54 83.5426 669.237 83.7297 669.005 83.9806C668.777 84.2268 668.664 84.563 668.664 84.9891C668.664 85.5715 668.879 86.0119 669.31 86.3101C669.746 86.6037 670.297 86.7505 670.965 86.7505ZM678.768 88.0005V77.0914H680.388V78.7391H680.501C680.7 78.1994 681.06 77.7614 681.581 77.4252C682.102 77.089 682.689 76.9209 683.342 76.9209C683.465 76.9209 683.619 76.9233 683.804 76.928C683.989 76.9328 684.128 76.9399 684.223 76.9494V78.6539C684.166 78.6397 684.036 78.6184 683.832 78.59C683.634 78.5568 683.423 78.5403 683.2 78.5403C682.67 78.5403 682.196 78.6515 681.78 78.8741C681.368 79.0919 681.041 79.3949 680.8 79.7832C680.563 80.1667 680.445 80.6047 680.445 81.0971V88.0005H678.768Z" fill="#B4B4B4"/>
<path d="M649.761 854V839.455H654.676C655.817 839.455 656.75 839.661 657.474 840.073C658.204 840.48 658.743 841.032 659.094 841.728C659.444 842.424 659.619 843.2 659.619 844.057C659.619 844.914 659.444 845.693 659.094 846.394C658.748 847.095 658.213 847.653 657.489 848.07C656.764 848.482 655.836 848.688 654.705 848.688H651.182V847.125H654.648C655.429 847.125 656.056 846.991 656.53 846.721C657.003 846.451 657.347 846.086 657.56 845.627C657.777 845.163 657.886 844.64 657.886 844.057C657.886 843.475 657.777 842.954 657.56 842.495C657.347 842.036 657.001 841.676 656.523 841.415C656.045 841.15 655.41 841.018 654.619 841.018H651.523V854H649.761ZM665.44 854.256C664.748 854.256 664.121 854.126 663.558 853.866C662.994 853.6 662.547 853.219 662.215 852.722C661.884 852.22 661.718 851.614 661.718 850.904C661.718 850.279 661.841 849.772 662.087 849.384C662.334 848.991 662.663 848.683 663.075 848.461C663.487 848.238 663.941 848.072 664.438 847.964C664.94 847.85 665.444 847.76 665.951 847.694C666.614 847.608 667.151 847.545 667.563 847.502C667.98 847.455 668.283 847.376 668.472 847.268C668.666 847.159 668.763 846.969 668.763 846.699V846.643C668.763 845.942 668.572 845.397 668.188 845.009C667.809 844.621 667.234 844.427 666.462 844.427C665.662 844.427 665.035 844.602 664.58 844.952C664.126 845.303 663.806 845.677 663.621 846.074L662.031 845.506C662.315 844.843 662.693 844.327 663.167 843.958C663.645 843.584 664.166 843.323 664.729 843.177C665.298 843.025 665.856 842.949 666.406 842.949C666.756 842.949 667.158 842.992 667.613 843.077C668.072 843.158 668.515 843.326 668.941 843.581C669.372 843.837 669.729 844.223 670.013 844.739C670.298 845.255 670.44 845.947 670.44 846.813V854H668.763V852.523H668.678C668.565 852.76 668.375 853.013 668.11 853.283C667.845 853.553 667.492 853.783 667.052 853.972C666.612 854.161 666.074 854.256 665.44 854.256ZM665.695 852.75C666.358 852.75 666.917 852.62 667.371 852.36C667.831 852.099 668.176 851.763 668.408 851.351C668.645 850.939 668.763 850.506 668.763 850.052V848.518C668.692 848.603 668.536 848.681 668.295 848.752C668.058 848.818 667.783 848.877 667.471 848.929C667.163 848.977 666.862 849.019 666.569 849.057C666.28 849.09 666.046 849.119 665.866 849.143C665.43 849.199 665.023 849.292 664.644 849.42C664.27 849.543 663.967 849.73 663.735 849.981C663.508 850.227 663.394 850.563 663.394 850.989C663.394 851.572 663.61 852.012 664.04 852.31C664.476 852.604 665.028 852.75 665.695 852.75ZM676.709 854.256C676.018 854.256 675.391 854.126 674.827 853.866C674.264 853.6 673.816 853.219 673.485 852.722C673.153 852.22 672.988 851.614 672.988 850.904C672.988 850.279 673.111 849.772 673.357 849.384C673.603 848.991 673.932 848.683 674.344 848.461C674.756 848.238 675.211 848.072 675.708 847.964C676.21 847.85 676.714 847.76 677.221 847.694C677.883 847.608 678.421 847.545 678.833 847.502C679.249 847.455 679.552 847.376 679.742 847.268C679.936 847.159 680.033 846.969 680.033 846.699V846.643C680.033 845.942 679.841 845.397 679.458 845.009C679.079 844.621 678.504 844.427 677.732 844.427C676.932 844.427 676.304 844.602 675.85 844.952C675.395 845.303 675.076 845.677 674.891 846.074L673.3 845.506C673.584 844.843 673.963 844.327 674.436 843.958C674.915 843.584 675.435 843.323 675.999 843.177C676.567 843.025 677.126 842.949 677.675 842.949C678.025 842.949 678.428 842.992 678.882 843.077C679.342 843.158 679.784 843.326 680.211 843.581C680.641 843.837 680.999 844.223 681.283 844.739C681.567 845.255 681.709 845.947 681.709 846.813V854H680.033V852.523H679.948C679.834 852.76 679.645 853.013 679.38 853.283C679.114 853.553 678.762 853.783 678.321 853.972C677.881 854.161 677.344 854.256 676.709 854.256ZM676.965 852.75C677.628 852.75 678.186 852.62 678.641 852.36C679.1 852.099 679.446 851.763 679.678 851.351C679.915 850.939 680.033 850.506 680.033 850.052V848.518C679.962 848.603 679.806 848.681 679.564 848.752C679.328 848.818 679.053 848.877 678.74 848.929C678.433 848.977 678.132 849.019 677.838 849.057C677.55 849.09 677.315 849.119 677.135 849.143C676.7 849.199 676.292 849.292 675.914 849.42C675.54 849.543 675.237 849.73 675.005 849.981C674.777 850.227 674.664 850.563 674.664 850.989C674.664 851.572 674.879 852.012 675.31 852.31C675.746 852.604 676.297 852.75 676.965 852.75ZM684.768 854V843.091H686.388V844.739H686.501C686.7 844.199 687.06 843.761 687.581 843.425C688.102 843.089 688.689 842.921 689.342 842.921C689.465 842.921 689.619 842.923 689.804 842.928C689.989 842.933 690.128 842.94 690.223 842.949V844.654C690.166 844.64 690.036 844.618 689.832 844.59C689.634 844.557 689.423 844.54 689.2 844.54C688.67 844.54 688.196 844.652 687.78 844.874C687.368 845.092 687.041 845.395 686.8 845.783C686.563 846.167 686.445 846.605 686.445 847.097V854H684.768Z" fill="#B4B4B4"/>
<path d="M1168.76 86.0002V71.4548H1173.85C1174.86 71.4548 1175.7 71.63 1176.35 71.9804C1177.01 72.326 1177.5 72.7924 1177.82 73.3795C1178.15 73.9619 1178.31 74.6082 1178.31 75.3184C1178.31 75.9434 1178.2 76.4595 1177.97 76.8667C1177.76 77.2739 1177.47 77.5959 1177.11 77.8326C1176.75 78.0694 1176.37 78.2446 1175.95 78.3582V78.5002C1176.39 78.5287 1176.84 78.6849 1177.29 78.969C1177.74 79.2531 1178.12 79.6603 1178.42 80.1906C1178.72 80.7209 1178.88 81.3696 1178.88 82.1366C1178.88 82.8658 1178.71 83.5216 1178.38 84.1039C1178.05 84.6863 1177.52 85.148 1176.81 85.4889C1176.09 85.8298 1175.16 86.0002 1174.02 86.0002H1168.76ZM1170.52 84.4377H1174.02C1175.17 84.4377 1175.98 84.2152 1176.47 83.7701C1176.96 83.3203 1177.2 82.7758 1177.2 82.1366C1177.2 81.6442 1177.07 81.1896 1176.82 80.773C1176.57 80.3516 1176.21 80.0154 1175.75 79.7644C1175.29 79.5088 1174.74 79.3809 1174.1 79.3809H1170.52V84.4377ZM1170.52 77.8468H1173.79C1174.32 77.8468 1174.8 77.7427 1175.22 77.5343C1175.66 77.326 1176 77.0324 1176.25 76.6537C1176.5 76.2749 1176.63 75.8298 1176.63 75.3184C1176.63 74.6792 1176.41 74.1371 1175.96 73.692C1175.52 73.2422 1174.81 73.0173 1173.85 73.0173H1170.52V77.8468ZM1183.22 71.4548V86.0002H1181.54V71.4548H1183.22ZM1190.72 86.2275C1189.73 86.2275 1188.87 85.9931 1188.13 85.5244C1187.39 85.0556 1186.81 84.3999 1186.39 83.5571C1185.98 82.7143 1185.78 81.7294 1185.78 80.6025C1185.78 79.4662 1185.98 78.4742 1186.39 77.6267C1186.81 76.7791 1187.39 76.121 1188.13 75.6522C1188.87 75.1835 1189.73 74.9491 1190.72 74.9491C1191.7 74.9491 1192.57 75.1835 1193.31 75.6522C1194.05 76.121 1194.63 76.7791 1195.04 77.6267C1195.45 78.4742 1195.66 79.4662 1195.66 80.6025C1195.66 81.7294 1195.45 82.7143 1195.04 83.5571C1194.63 84.3999 1194.05 85.0556 1193.31 85.5244C1192.57 85.9931 1191.7 86.2275 1190.72 86.2275ZM1190.72 84.7218C1191.47 84.7218 1192.08 84.5301 1192.57 84.1466C1193.05 83.763 1193.41 83.2588 1193.64 82.6338C1193.87 82.0088 1193.99 81.3317 1193.99 80.6025C1193.99 79.8733 1193.87 79.1939 1193.64 78.5642C1193.41 77.9344 1193.05 77.4254 1192.57 77.0372C1192.08 76.6489 1191.47 76.4548 1190.72 76.4548C1189.97 76.4548 1189.36 76.6489 1188.87 77.0372C1188.39 77.4254 1188.03 77.9344 1187.8 78.5642C1187.57 79.1939 1187.45 79.8733 1187.45 80.6025C1187.45 81.3317 1187.57 82.0088 1187.8 82.6338C1188.03 83.2588 1188.39 83.763 1188.87 84.1466C1189.36 84.5301 1189.97 84.7218 1190.72 84.7218ZM1205.1 81.54V75.0912H1206.77V86.0002H1205.1V84.1537H1204.98C1204.73 84.7076 1204.33 85.1787 1203.79 85.567C1203.25 85.9505 1202.57 86.1423 1201.74 86.1423C1201.06 86.1423 1200.46 85.9931 1199.93 85.6948C1199.4 85.3918 1198.98 84.9373 1198.68 84.3312C1198.37 83.7204 1198.22 82.951 1198.22 82.023V75.0912H1199.9V81.9093C1199.9 82.7048 1200.12 83.3393 1200.57 83.8127C1201.02 84.2862 1201.59 84.523 1202.28 84.523C1202.7 84.523 1203.12 84.4164 1203.56 84.2034C1203.99 83.9903 1204.36 83.6636 1204.65 83.2233C1204.95 82.7829 1205.1 82.2218 1205.1 81.54ZM1217.57 77.5343L1216.06 77.9605C1215.97 77.7095 1215.83 77.4657 1215.65 77.2289C1215.47 76.9875 1215.22 76.7886 1214.91 76.6323C1214.59 76.4761 1214.19 76.398 1213.71 76.398C1213.04 76.398 1212.48 76.5519 1212.04 76.8596C1211.6 77.1626 1211.38 77.5485 1211.38 78.0173C1211.38 78.434 1211.53 78.763 1211.83 79.0045C1212.13 79.246 1212.61 79.4472 1213.25 79.6082L1214.87 80.0059C1215.85 80.2427 1216.57 80.6049 1217.05 81.0926C1217.53 81.5755 1217.77 82.1982 1217.77 82.9605C1217.77 83.5855 1217.59 84.1442 1217.23 84.6366C1216.87 85.129 1216.38 85.5173 1215.74 85.8014C1215.1 86.0855 1214.35 86.2275 1213.51 86.2275C1212.39 86.2275 1211.47 85.986 1210.74 85.5031C1210.02 85.0201 1209.55 84.3146 1209.36 83.3866L1210.95 82.9889C1211.1 83.576 1211.39 84.0163 1211.81 84.3099C1212.24 84.6035 1212.79 84.7502 1213.48 84.7502C1214.26 84.7502 1214.88 84.5845 1215.34 84.2531C1215.8 83.9169 1216.04 83.5144 1216.04 83.0457C1216.04 82.6669 1215.9 82.3497 1215.64 82.094C1215.37 81.8336 1214.97 81.6394 1214.42 81.5116L1212.6 81.0855C1211.6 80.8487 1210.87 80.4818 1210.4 79.9846C1209.93 79.4827 1209.7 78.8554 1209.7 78.1025C1209.7 77.487 1209.87 76.9425 1210.22 76.469C1210.57 75.9955 1211.05 75.6238 1211.65 75.3539C1212.25 75.0841 1212.94 74.9491 1213.71 74.9491C1214.79 74.9491 1215.63 75.1858 1216.25 75.6593C1216.87 76.1328 1217.31 76.7578 1217.57 77.5343ZM1224.87 86.2275C1223.81 86.2275 1222.91 85.9955 1222.15 85.5315C1221.39 85.0627 1220.8 84.4093 1220.39 83.5713C1219.98 82.7285 1219.78 81.7484 1219.78 80.6309C1219.78 79.5135 1219.98 78.5287 1220.39 77.6764C1220.8 76.8194 1221.38 76.1518 1222.11 75.6735C1222.85 75.1906 1223.71 74.9491 1224.7 74.9491C1225.26 74.9491 1225.82 75.0438 1226.38 75.2332C1226.93 75.4226 1227.44 75.7304 1227.89 76.1565C1228.35 76.5779 1228.71 77.1366 1228.98 77.8326C1229.25 78.5287 1229.38 79.3857 1229.38 80.4037V81.1139H1220.97V79.665H1227.68C1227.68 79.0495 1227.56 78.5002 1227.31 78.0173C1227.07 77.5343 1226.72 77.1532 1226.27 76.8738C1225.83 76.5945 1225.3 76.4548 1224.7 76.4548C1224.03 76.4548 1223.45 76.6205 1222.96 76.9519C1222.48 77.2787 1222.11 77.7048 1221.85 78.2304C1221.59 78.7559 1221.46 79.3194 1221.46 79.9207V80.8866C1221.46 81.7105 1221.6 82.4089 1221.88 82.9818C1222.17 83.55 1222.57 83.9832 1223.08 84.2815C1223.59 84.5751 1224.19 84.7218 1224.87 84.7218C1225.31 84.7218 1225.7 84.6603 1226.06 84.5372C1226.42 84.4093 1226.73 84.2199 1226.99 83.969C1227.25 83.7133 1227.45 83.3961 1227.59 83.0173L1229.21 83.4718C1229.04 84.0211 1228.76 84.504 1228.35 84.9207C1227.95 85.3326 1227.45 85.6546 1226.86 85.8866C1226.27 86.1139 1225.6 86.2275 1224.87 86.2275ZM1237.78 86.0002V71.4548H1242.7C1243.84 71.4548 1244.77 71.6608 1245.5 72.0727C1246.23 72.4799 1246.77 73.0315 1247.12 73.7275C1247.47 74.4235 1247.64 75.2001 1247.64 76.0571C1247.64 76.9141 1247.47 77.693 1247.12 78.3937C1246.77 79.0945 1246.24 79.6532 1245.51 80.0698C1244.79 80.4818 1243.86 80.6877 1242.73 80.6877H1239.21V79.1252H1242.67C1243.45 79.1252 1244.08 78.9903 1244.55 78.7204C1245.03 78.4505 1245.37 78.0859 1245.58 77.6267C1245.8 77.1626 1245.91 76.6394 1245.91 76.0571C1245.91 75.4747 1245.8 74.9538 1245.58 74.4946C1245.37 74.0353 1245.02 73.6754 1244.55 73.415C1244.07 73.1499 1243.43 73.0173 1242.64 73.0173H1239.55V86.0002H1237.78ZM1250.25 86.0002V75.0912H1251.93V86.0002H1250.25ZM1251.11 73.273C1250.78 73.273 1250.5 73.1617 1250.26 72.9392C1250.03 72.7166 1249.91 72.4491 1249.91 72.1366C1249.91 71.8241 1250.03 71.5566 1250.26 71.3341C1250.5 71.1115 1250.78 71.0002 1251.11 71.0002C1251.43 71.0002 1251.71 71.1115 1251.94 71.3341C1252.18 71.5566 1252.3 71.8241 1252.3 72.1366C1252.3 72.4491 1252.18 72.7166 1251.94 72.9392C1251.71 73.1617 1251.43 73.273 1251.11 73.273ZM1259.57 86.2275C1258.52 86.2275 1257.61 85.9955 1256.85 85.5315C1256.1 85.0627 1255.51 84.4093 1255.1 83.5713C1254.69 82.7285 1254.49 81.7484 1254.49 80.6309C1254.49 79.5135 1254.69 78.5287 1255.1 77.6764C1255.51 76.8194 1256.08 76.1518 1256.82 75.6735C1257.56 75.1906 1258.42 74.9491 1259.4 74.9491C1259.97 74.9491 1260.53 75.0438 1261.09 75.2332C1261.64 75.4226 1262.14 75.7304 1262.6 76.1565C1263.05 76.5779 1263.42 77.1366 1263.69 77.8326C1263.95 78.5287 1264.09 79.3857 1264.09 80.4037V81.1139H1255.68V79.665H1262.39C1262.39 79.0495 1262.26 78.5002 1262.02 78.0173C1261.77 77.5343 1261.43 77.1532 1260.98 76.8738C1260.53 76.5945 1260.01 76.4548 1259.4 76.4548C1258.73 76.4548 1258.16 76.6205 1257.67 76.9519C1257.19 77.2787 1256.81 77.7048 1256.55 78.2304C1256.29 78.7559 1256.16 79.3194 1256.16 79.9207V80.8866C1256.16 81.7105 1256.31 82.4089 1256.59 82.9818C1256.88 83.55 1257.28 83.9832 1257.79 84.2815C1258.3 84.5751 1258.9 84.7218 1259.57 84.7218C1260.01 84.7218 1260.41 84.6603 1260.77 84.5372C1261.13 84.4093 1261.44 84.2199 1261.7 83.969C1261.96 83.7133 1262.16 83.3961 1262.3 83.0173L1263.92 83.4718C1263.75 84.0211 1263.46 84.504 1263.06 84.9207C1262.66 85.3326 1262.16 85.6546 1261.57 85.8866C1260.98 86.1139 1260.31 86.2275 1259.57 86.2275ZM1271.07 86.2275C1270.05 86.2275 1269.17 85.986 1268.43 85.5031C1267.69 85.0201 1267.12 84.3549 1266.72 83.5073C1266.33 82.6598 1266.13 81.6915 1266.13 80.6025C1266.13 79.4946 1266.33 78.5168 1266.74 77.6693C1267.15 76.817 1267.72 76.1518 1268.46 75.6735C1269.2 75.1906 1270.06 74.9491 1271.04 74.9491C1271.81 74.9491 1272.5 75.0912 1273.12 75.3752C1273.73 75.6593 1274.24 76.0571 1274.63 76.5684C1275.02 77.0798 1275.27 77.6764 1275.36 78.3582H1273.69C1273.56 77.861 1273.27 77.4207 1272.83 77.0372C1272.4 76.6489 1271.81 76.4548 1271.07 76.4548C1270.42 76.4548 1269.85 76.6252 1269.35 76.9662C1268.86 77.3023 1268.48 77.7782 1268.21 78.3937C1267.94 79.0045 1267.8 79.7218 1267.8 80.5457C1267.8 81.3885 1267.94 82.1224 1268.2 82.7474C1268.47 83.3724 1268.85 83.8577 1269.34 84.2034C1269.83 84.549 1270.41 84.7218 1271.07 84.7218C1271.51 84.7218 1271.9 84.6461 1272.26 84.4946C1272.61 84.343 1272.91 84.1252 1273.16 83.8412C1273.41 83.5571 1273.58 83.2162 1273.69 82.8184H1275.36C1275.27 83.4624 1275.03 84.0424 1274.66 84.5585C1274.29 85.0698 1273.8 85.477 1273.19 85.7801C1272.58 86.0784 1271.88 86.2275 1271.07 86.2275ZM1282.39 86.2275C1281.33 86.2275 1280.43 85.9955 1279.67 85.5315C1278.91 85.0627 1278.32 84.4093 1277.91 83.5713C1277.5 82.7285 1277.3 81.7484 1277.3 80.6309C1277.3 79.5135 1277.5 78.5287 1277.91 77.6764C1278.32 76.8194 1278.9 76.1518 1279.63 75.6735C1280.37 75.1906 1281.23 74.9491 1282.21 74.9491C1282.78 74.9491 1283.34 75.0438 1283.9 75.2332C1284.45 75.4226 1284.96 75.7304 1285.41 76.1565C1285.87 76.5779 1286.23 77.1366 1286.5 77.8326C1286.77 78.5287 1286.9 79.3857 1286.9 80.4037V81.1139H1278.49V79.665H1285.2C1285.2 79.0495 1285.07 78.5002 1284.83 78.0173C1284.59 77.5343 1284.24 77.1532 1283.79 76.8738C1283.35 76.5945 1282.82 76.4548 1282.21 76.4548C1281.55 76.4548 1280.97 76.6205 1280.48 76.9519C1280 77.2787 1279.63 77.7048 1279.37 78.2304C1279.11 78.7559 1278.98 79.3194 1278.98 79.9207V80.8866C1278.98 81.7105 1279.12 82.4089 1279.4 82.9818C1279.69 83.55 1280.09 83.9832 1280.6 84.2815C1281.11 84.5751 1281.71 84.7218 1282.39 84.7218C1282.83 84.7218 1283.22 84.6603 1283.58 84.5372C1283.94 84.4093 1284.25 84.2199 1284.51 83.969C1284.77 83.7133 1284.97 83.3961 1285.11 83.0173L1286.73 83.4718C1286.56 84.0211 1286.27 84.504 1285.87 84.9207C1285.47 85.3326 1284.97 85.6546 1284.38 85.8866C1283.79 86.1139 1283.12 86.2275 1282.39 86.2275Z" fill="#B4B4B4"/>
<path d="M74.358 90.0002H72.5114L77.8523 75.4548H79.6705L85.0114 90.0002H83.1648L78.8182 77.7559H78.7045L74.358 90.0002ZM75.0398 84.3184H82.483V85.8809H75.0398V84.3184ZM90.2599 90.2559C89.5687 90.2559 88.9413 90.1257 88.3778 89.8653C87.8144 89.6001 87.367 89.219 87.0355 88.7218C86.7041 88.2199 86.5384 87.6139 86.5384 86.9037C86.5384 86.2787 86.6615 85.772 86.9077 85.3838C87.1539 84.9908 87.483 84.683 87.8949 84.4605C88.3068 84.2379 88.7614 84.0722 89.2585 83.9633C89.7604 83.8497 90.2647 83.7597 90.7713 83.6934C91.4342 83.6082 91.9716 83.5443 92.3835 83.5017C92.8002 83.4543 93.1032 83.3762 93.2926 83.2673C93.4867 83.1584 93.5838 82.969 93.5838 82.6991V82.6423C93.5838 81.9415 93.392 81.397 93.0085 81.0088C92.6297 80.6205 92.0545 80.4264 91.2827 80.4264C90.4825 80.4264 89.8551 80.6016 89.4006 80.9519C88.946 81.3023 88.6264 81.6764 88.4418 82.0741L86.8509 81.5059C87.1349 80.843 87.5137 80.3269 87.9872 79.9576C88.4654 79.5836 88.9863 79.3232 89.5497 79.1764C90.1179 79.0249 90.6766 78.9491 91.2259 78.9491C91.5762 78.9491 91.9787 78.9917 92.4332 79.0769C92.8925 79.1574 93.3352 79.3255 93.7614 79.5812C94.1922 79.8369 94.5497 80.2228 94.8338 80.7389C95.1179 81.255 95.2599 81.9463 95.2599 82.8127V90.0002H93.5838V88.523H93.4986C93.3849 88.7597 93.1955 89.013 92.9304 89.2829C92.6652 89.5528 92.3125 89.7824 91.8722 89.9718C91.4318 90.1612 90.8944 90.2559 90.2599 90.2559ZM90.5156 88.7502C91.1785 88.7502 91.7372 88.62 92.1918 88.3596C92.651 88.0992 92.9967 87.763 93.2287 87.3511C93.4654 86.9392 93.5838 86.5059 93.5838 86.0514V84.5173C93.5128 84.6025 93.3565 84.6806 93.1151 84.7517C92.8783 84.818 92.6037 84.8771 92.2912 84.9292C91.9834 84.9766 91.6828 85.0192 91.3892 85.0571C91.1004 85.0902 90.866 85.1186 90.6861 85.1423C90.2505 85.1991 89.8433 85.2914 89.4645 85.4193C89.0904 85.5424 88.7874 85.7294 88.5554 85.9804C88.3281 86.2266 88.2145 86.5627 88.2145 86.9889C88.2145 87.5713 88.4299 88.0116 88.8608 88.3099C89.2964 88.6035 89.848 88.7502 90.5156 88.7502ZM99.9954 83.4377V90.0002H98.3192V79.0912H99.9386V80.7957H100.081C100.336 80.2417 100.725 79.7966 101.245 79.4605C101.766 79.1196 102.439 78.9491 103.262 78.9491C104.001 78.9491 104.647 79.1006 105.201 79.4037C105.755 79.7019 106.186 80.1565 106.494 80.7673C106.802 81.3733 106.956 82.1404 106.956 83.0684V90.0002H105.279V83.1821C105.279 82.3251 105.057 81.6574 104.612 81.1792C104.167 80.6963 103.556 80.4548 102.779 80.4548C102.244 80.4548 101.766 80.5708 101.345 80.8028C100.928 81.0348 100.599 81.3733 100.358 81.8184C100.116 82.2635 99.9954 82.8033 99.9954 83.4377ZM114.45 90.2275C113.428 90.2275 112.547 89.986 111.808 89.5031C111.07 89.0201 110.501 88.3549 110.104 87.5073C109.706 86.6598 109.507 85.6915 109.507 84.6025C109.507 83.4946 109.711 82.5168 110.118 81.6693C110.53 80.817 111.103 80.1518 111.837 79.6735C112.575 79.1906 113.437 78.9491 114.422 78.9491C115.189 78.9491 115.88 79.0912 116.496 79.3752C117.111 79.6593 117.616 80.0571 118.009 80.5684C118.402 81.0798 118.645 81.6764 118.74 82.3582H117.064C116.936 81.861 116.652 81.4207 116.212 81.0372C115.776 80.6489 115.189 80.4548 114.45 80.4548C113.797 80.4548 113.224 80.6252 112.732 80.9662C112.244 81.3023 111.863 81.7782 111.588 82.3937C111.318 83.0045 111.183 83.7218 111.183 84.5457C111.183 85.3885 111.316 86.1224 111.581 86.7474C111.851 87.3724 112.23 87.8577 112.717 88.2034C113.21 88.549 113.787 88.7218 114.45 88.7218C114.886 88.7218 115.281 88.6461 115.636 88.4946C115.991 88.343 116.292 88.1252 116.538 87.8412C116.785 87.5571 116.96 87.2162 117.064 86.8184H118.74C118.645 87.4624 118.411 88.0424 118.037 88.5585C117.668 89.0698 117.178 89.477 116.567 89.7801C115.961 90.0784 115.255 90.2275 114.45 90.2275ZM122.866 83.4377V90.0002H121.19V75.4548H122.866V80.7957H123.009C123.264 80.2323 123.648 79.7848 124.159 79.4534C124.675 79.1172 125.362 78.9491 126.219 78.9491C126.962 78.9491 127.613 79.0983 128.172 79.3966C128.731 79.6901 129.164 80.1423 129.472 80.7531C129.784 81.3591 129.94 82.1309 129.94 83.0684V90.0002H128.264V83.1821C128.264 82.3156 128.039 81.6456 127.589 81.1721C127.144 80.6939 126.527 80.4548 125.736 80.4548C125.187 80.4548 124.694 80.5708 124.259 80.8028C123.828 81.0348 123.487 81.3733 123.236 81.8184C122.99 82.2635 122.866 82.8033 122.866 83.4377ZM136.217 90.2559C135.526 90.2559 134.898 90.1257 134.335 89.8653C133.771 89.6001 133.324 89.219 132.993 88.7218C132.661 88.2199 132.495 87.6139 132.495 86.9037C132.495 86.2787 132.618 85.772 132.865 85.3838C133.111 84.9908 133.44 84.683 133.852 84.4605C134.264 84.2379 134.718 84.0722 135.216 83.9633C135.717 83.8497 136.222 83.7597 136.728 83.6934C137.391 83.6082 137.929 83.5443 138.341 83.5017C138.757 83.4543 139.06 83.3762 139.25 83.2673C139.444 83.1584 139.541 82.969 139.541 82.6991V82.6423C139.541 81.9415 139.349 81.397 138.966 81.0088C138.587 80.6205 138.011 80.4264 137.24 80.4264C136.44 80.4264 135.812 80.6016 135.358 80.9519C134.903 81.3023 134.583 81.6764 134.399 82.0741L132.808 81.5059C133.092 80.843 133.471 80.3269 133.944 79.9576C134.422 79.5836 134.943 79.3232 135.507 79.1764C136.075 79.0249 136.634 78.9491 137.183 78.9491C137.533 78.9491 137.936 78.9917 138.39 79.0769C138.85 79.1574 139.292 79.3255 139.718 79.5812C140.149 79.8369 140.507 80.2228 140.791 80.7389C141.075 81.255 141.217 81.9463 141.217 82.8127V90.0002H139.541V88.523H139.456C139.342 88.7597 139.153 89.013 138.887 89.2829C138.622 89.5528 138.27 89.7824 137.829 89.9718C137.389 90.1612 136.851 90.2559 136.217 90.2559ZM136.473 88.7502C137.136 88.7502 137.694 88.62 138.149 88.3596C138.608 88.0992 138.954 87.763 139.186 87.3511C139.422 86.9392 139.541 86.5059 139.541 86.0514V84.5173C139.47 84.6025 139.314 84.6806 139.072 84.7517C138.835 84.818 138.561 84.8771 138.248 84.9292C137.94 84.9766 137.64 85.0192 137.346 85.0571C137.057 85.0902 136.823 85.1186 136.643 85.1423C136.208 85.1991 135.8 85.2914 135.422 85.4193C135.047 85.5424 134.744 85.7294 134.512 85.9804C134.285 86.2266 134.172 86.5627 134.172 86.9889C134.172 87.5713 134.387 88.0116 134.818 88.3099C135.253 88.6035 135.805 88.7502 136.473 88.7502ZM145.952 75.4548V90.0002H144.276V75.4548H145.952Z" fill="#B4B4B4"/>
</svg>
